<svg xmlns="http://www.w3.org/2000/svg" viewBox="0 0 720 760" fill="none"><title>Open form — original PallettAI ribbon artwork</title><desc>A folded copper ribbon forms an open loop above a apricot platform, an abstract interpretation of the PallettAI monogram.</desc><defs><linearGradient id="metal" x1="165" y1="70" x2="545" y2="558" gradientUnits="userSpaceOnUse"><stop stop-color="#493326"/><stop offset=".15" stop-color="#d7b392"/><stop offset=".22" stop-color="#fff4df"/><stop offset=".3" stop-color="#b37d58"/><stop offset=".4" stop-color="#5a3524"/><stop offset=".55" stop-color="#d2a180"/><stop offset=".62" stop-color="#fff3dc"/><stop offset=".72" stop-color="#985a39"/><stop offset=".84" stop-color="#efd0ac"/><stop offset="1" stop-color="#72442d"/></linearGradient><linearGradient id="edge" x1="150" y1="185" x2="460" y2="578" gradientUnits="userSpaceOnUse"><stop stop-color="#fff1d8"/><stop offset=".28" stop-color="#b68966"/><stop offset=".52" stop-color="#442819"/><stop offset=".76" stop-color="#edca9d"/><stop offset="1" stop-color="#875330"/></linearGradient><linearGradient id="fold" x1="388" y1="161" x2="600" y2="482" gradientUnits="userSpaceOnUse"><stop stop-color="#fff5e3"/><stop offset=".19" stop-color="#d7b897"/><stop offset=".48" stop-color="#70442e"/><stop offset=".68" stop-color="#c88353"/><stop offset=".86" stop-color="#ffd9ae"/><stop offset="1" stop-color="#593923"/></linearGradient><linearGradient id="plinth" x1="152" y1="632" x2="614" y2="692" gradientUnits="userSpaceOnUse"><stop stop-color="#ffd2a2"/><stop offset="1" stop-color="#e8a273"/></linearGradient><radialGradient id="wash"><stop stop-color="#ead4b8"/><stop offset="1" stop-color="#f2e4d4" stop-opacity="0"/></radialGradient><filter id="shadow" x="-50%" y="-100%" width="200%" height="300%"><feGaussianBlur stdDeviation="17"/></filter><filter id="sculpture" x="-30%" y="-20%" width="160%" height="160%"><feDropShadow dx="9" dy="25" stdDeviation="15" flood-color="#553820" flood-opacity=".15"/></filter></defs><ellipse cx="373" cy="364" rx="337" ry="326" fill="url(#wash)"/><g stroke="#d4bba1" stroke-width="1"><path d="M61 582 624 238M120 695 659 365M116 218 629 620M68 361 542 734" opacity=".35"/><ellipse cx="364" cy="379" rx="276" ry="280" stroke-dasharray="3 9" opacity=".65"/></g><path d="m109 637 342-82 196 77-346 96-192-91Z" fill="url(#plinth)"/><path d="m109 637 192 77 346-82v17l-346 95-192-88v-19Z" fill="#d58c5f"/><ellipse cx="381" cy="624" rx="164" ry="22" fill="#63432a" opacity=".25" filter="url(#shadow)"/><g filter="url(#sculpture)"><path d="M182 577V257c0-127 89-195 207-163 111 30 184 131 178 236-5 109-85 153-180 121l-54-19v-79l63 20c45 15 87-5 89-59 3-55-39-110-92-125-65-18-105 14-105 83v327l-106-22Z" fill="url(#edge)"/><path d="M160 557V237c0-127 89-195 207-163 111 30 184 131 178 236-5 109-85 153-180 121l-54-19v-79l63 20c45 15 87-5 89-59 3-55-39-110-92-125-65-18-105 14-105 83v327l-106-22Z" fill="url(#metal)" stroke="#edd2ac" stroke-width="1"/><path d="m311 333 22 20 63 20c45 15 87-5 89-59 2-40-20-84-55-108l-22-20c35 25 57 65 55 108-2 54-44 74-89 59l-63-20Z" fill="url(#fold)"/><path d="m266 579 57-52 52-85-64-30v-79l22 20v79l54 19-68 119-53 30v-21Z" fill="url(#fold)"/><path d="M162 557V237c0-126 88-193 205-161" stroke="#fff3dc" stroke-width="2" opacity=".8"/><path d="M273 250c0-64 41-95 98-79m-58 239 53 19c93 32 171-13 177-119" stroke="#fff1d8" stroke-width="1.5" opacity=".65"/></g><g fill="#9a7756"><circle cx="89" cy="164" r="3"/><path d="M89 149v30m-15-15h30" stroke="#9a7756"/><circle cx="628" cy="550" r="3"/><path d="M628 535v30m-15-15h30" stroke="#9a7756"/></g></svg>
